<?xml version="1.0" encoding="utf-8"?>
<!-- Generator: Adobe Illustrator 21.0.0, SVG Export Plug-In . SVG Version: 6.00 Build 0)  -->
<svg version="1.1" id="Layer_1" xmlns="http://www.w3.org/2000/svg" xmlns:xlink="http://www.w3.org/1999/xlink" x="0px" y="0px"
	 viewBox="0 0 15.9 15.9" style="enable-background:new 0 0 15.9 15.9;" xml:space="preserve">
<style type="text/css">
	.st0{fill:#F27C99;}
</style>
<path d="M14.2,15.9H1.7c-0.9,0-1.7-0.8-1.7-1.7L0,1.7C0,0.8,0.8,0,1.7,0h12.4c0.9,0,1.7,0.8,1.7,1.7v12.5
	C15.9,15.1,15.1,15.9,14.2,15.9z"/>
<path class="st0" d="M8.4,4.8H7.5V3.8h0.9V4.8z M12,7.5h-0.9v0.9H12V7.5z M5.6,4.8H4.7v0.9h0.9V4.8z M4.7,7.5H3.8v0.9h0.9V7.5z
	 M14.8,2.5L14.3,2l-6,4.6c-0.1,0-0.9,0-0.9,0C7,6.6,6.5,7,6.5,7.5v0.9c0,0.5,0.4,0.9,0.9,0.9h0.9c0.5,0,0.9-0.4,0.9-0.9V7.6
	L14.8,2.5z M13.3,6.2c0.2,0.6,0.3,1.1,0.3,1.8c0,3.1-2.5,5.7-5.7,5.7S2.2,11.1,2.2,8s2.5-5.7,5.7-5.7c1.1,0,2.1,0.3,3,0.9l0.9-0.9
	c-1.1-0.8-2.5-1.2-3.8-1.2C4.1,1.1,1,4.2,1,8s3.1,6.9,6.9,6.9s6.9-3.1,6.9-6.9c0-0.9-0.2-1.9-0.5-2.7L13.3,6.2z"/>
</svg>
