<?xml version="1.0" encoding="utf-8"?>
<!-- Generator: Adobe Illustrator 21.0.0, SVG Export Plug-In . SVG Version: 6.00 Build 0)  -->
<svg version="1.1" id="Layer_1" xmlns="http://www.w3.org/2000/svg" xmlns:xlink="http://www.w3.org/1999/xlink" x="0px" y="0px"
	 viewBox="0 0 12 16" style="enable-background:new 0 0 12 16;" xml:space="preserve">
<style type="text/css">
	.st0{fill:#FFFFFF;}
</style>
<g>
	<path d="M9.6,15.2H2.4c-0.9,0-1.7-0.8-1.7-1.7V1.9c0-0.9,0.8-1.7,1.7-1.7h7.2c0.9,0,1.7,0.8,1.7,1.7v11.6
		C11.3,14.4,10.6,15.2,9.6,15.2z"/>
	<polygon points="6,5.6 10.9,8.2 10.9,13.3 6,15.9 1.1,13.3 1.1,8.2 	"/>
</g>
<path class="st0" d="M6,12.4c-2.7,0-5-0.7-5-1.7V9c0-0.1,0.1-0.3,0.2-0.4C1.8,9.3,3.7,9.9,6,9.9s4.2-0.5,4.8-1.2
	C10.9,8.8,11,8.9,11,9v1.7C11,11.6,8.7,12.4,6,12.4z M6,9C3.3,9,1,8.3,1,7.4V5.7c0-0.1,0-0.2,0.1-0.3c0,0,0.1-0.1,0.1-0.2
	C1.8,6,3.7,6.6,6,6.6s4.2-0.5,4.8-1.2c0,0,0.1,0.1,0.1,0.2c0,0.1,0.1,0.2,0.1,0.3v1.7C11,8.3,8.7,9,6,9z M6,5.7C3.3,5.7,1,5,1,4.1
	V2.4c0-0.9,2.2-1.7,5-1.7s5,0.7,5,1.7v1.7C11,5,8.7,5.7,6,5.7z M6,1.6C4.2,1.6,2.7,2,2.7,2.4S4.2,3.2,6,3.2s3.3-0.4,3.3-0.8
	S7.8,1.6,6,1.6z"/>
</svg>
