<?xml version="1.0" encoding="utf-8"?>
<!-- Generator: Adobe Illustrator 21.0.0, SVG Export Plug-In . SVG Version: 6.00 Build 0)  -->
<svg version="1.1" id="Layer_1" xmlns="http://www.w3.org/2000/svg" xmlns:xlink="http://www.w3.org/1999/xlink" x="0px" y="0px"
	 viewBox="0 0 13.1 13.4" style="enable-background:new 0 0 13.1 13.4;" xml:space="preserve">
<style type="text/css">
	.st0{fill:#8BEF94;}
</style>
<path d="M11.4,13.4H1.7c-0.9,0-1.7-0.8-1.7-1.7l0-9.9C0,0.8,0.8,0,1.7,0h9.7c0.9,0,1.7,0.8,1.7,1.7v9.9
	C13.1,12.6,12.3,13.4,11.4,13.4z"/>
<path class="st0" d="M9.5,0.5H3.6c-0.4,0-0.7,0.3-0.7,0.7v10.4c0,0.4,0.3,0.7,0.7,0.7h5.9c0.4,0,0.7-0.3,0.7-0.7V1.3
	C10.3,0.9,9.9,0.5,9.5,0.5z M6.5,11.9c-0.5,0-1-0.4-1-1s0.4-1,1-1s1,0.4,1,1S7.1,11.9,6.5,11.9z M9.5,9.4H3.6V2h5.9V9.4z"/>
</svg>
