<?xml version="1.0" encoding="utf-8"?>
<!-- Generator: Adobe Illustrator 21.0.0, SVG Export Plug-In . SVG Version: 6.00 Build 0)  -->
<svg version="1.1" id="Layer_1" xmlns="http://www.w3.org/2000/svg" xmlns:xlink="http://www.w3.org/1999/xlink" x="0px" y="0px"
	 viewBox="0 0 15.4 14.6" style="enable-background:new 0 0 15.4 14.6;" xml:space="preserve">
<style type="text/css">
	.st0{fill:#FC70FC;}
</style>
<path d="M13.6,14.6H1.7c-0.9,0-1.7-0.8-1.7-1.7L0,1.7C0,0.8,0.8,0,1.7,0h11.9c0.9,0,1.7,0.8,1.7,1.7v11.1
	C15.4,13.8,14.6,14.6,13.6,14.6z"/>
<path class="st0" d="M5.8,12.4H4.9v-0.9h0.9V12.4z M13.2,6.8v6.5c0,0.6-0.4,0.9-0.9,0.9H3c-0.6,0-0.9-0.4-0.9-0.9V6.8
	c0-0.6,0.4-0.9,0.9-0.9H4V4c0-2,1.7-3.7,3.7-3.7S11.4,2,11.4,4v1.9h0.9C12.9,5.9,13.2,6.3,13.2,6.8z M5.6,5.9h4.1V4c0-1.1-0.9-2-2-2
	s-2,0.9-2,2V5.9L5.6,5.9z M12.3,6.8H4v6.5h8.3V6.8z M5.8,7.7H4.9v0.9h0.9V7.7z M5.8,9.6H4.9v0.9h0.9V9.6z"/>
</svg>
